{"glyphs":{":":{"x_min":0,"x_max":255,"ha":255,"o":"m 128 104 q 152 104 170 87 q 187 69 187 45 q 187 21 169 3 q 152 -14 128 -14 q 105 -14 87 4 q 69 22 69 45 q 69 69 86 86 q 104 104 128 104 z m 128 357 q 152 357 170 340 q 187 322 187 298 q 187 274 169 256 q 152 239 128 239 q 104 239 87 257 q 69 274 69 298 q 69 322 86 339 q 104 357 128 357 z"},"$":{"x_min":0,"x_max":511,"ha":511,"o":"m 92 184 q 153 127 202 101 q 251 74 294 74 q 330 74 355 95 q 380 116 380 145 q 380 177 356 199 q 332 221 242 256 q 140 295 108 331 q 75 367 75 424 q 75 483 112 527 q 148 570 210 585 l 210 662 l 293 662 l 293 592 q 337 585 374 573 q 410 560 443 542 l 384 449 q 344 482 304 500 q 265 517 229 517 q 193 517 172 500 q 150 484 150 457 q 150 415 263 372 q 277 366 285 363 q 393 322 427 284 q 462 246 462 183 q 462 117 416 69 q 371 21 293 5 l 293 -74 l 210 -74 l 210 1 q 151 6 104 28 q 56 49 20 86 z"},"?":{"x_min":0,"x_max":450,"ha":450,"o":"m 211 104 q 236 104 253 87 q 270 70 270 45 q 270 21 252 3 q 235 -14 211 -14 q 188 -14 170 4 q 152 21 152 45 q 152 69 169 86 q 187 104 211 104 z m 246 207 l 166 207 q 166 214 165 223 q 165 231 165 247 q 165 287 176 320 q 186 353 214 394 q 223 407 241 432 q 291 496 291 537 q 291 578 267 607 q 243 637 209 637 q 178 637 159 616 q 139 595 139 562 q 139 543 146 522 q 152 501 165 475 l 62 428 q 48 451 42 475 q 35 500 35 525 q 35 595 95 644 q 155 694 240 694 q 320 694 372 651 q 423 608 423 542 q 423 470 333 387 q 313 368 303 358 q 271 325 258 295 q 246 265 246 219 z"},"<":{"x_min":0,"x_max":833,"ha":833,"o":"m 704 484 l 248 298 l 704 112 l 704 23 l 129 259 l 129 337 l 704 574 z"},"'":{"x_min":0,"x_max":175,"ha":175,"o":"m 78 418 l 42 642 q 42 646 41 650 q 41 654 41 661 q 41 687 53 700 q 65 714 87 714 q 110 714 122 700 q 134 687 134 661 q 134 653 134 649 q 133 645 133 642 l 97 418 z"},"=":{"x_min":0,"x_max":833,"ha":833,"o":"m 709 238 l 709 157 l 124 157 l 124 238 z m 709 440 l 709 358 l 124 358 l 124 440 z"},"a":{"x_min":0,"x_max":545,"ha":545,"o":"m 334 266 q 323 268 312 268 q 301 269 287 269 q 226 269 188 238 q 151 208 151 158 q 151 116 176 90 q 202 64 242 64 q 286 64 310 92 q 334 120 334 171 z m 134 506 l 177 493 l 168 459 q 200 477 230 486 q 261 495 292 495 q 374 495 415 453 q 456 412 456 328 l 456 48 l 500 48 l 500 0 l 345 0 l 334 55 q 302 21 266 3 q 229 -14 189 -14 q 123 -14 78 31 q 33 77 33 143 q 33 227 95 271 q 157 315 274 315 q 289 315 304 314 q 319 313 334 312 l 334 346 q 334 383 313 403 q 292 424 254 424 q 217 424 186 403 q 154 382 133 343 l 87 359 z"},"L":{"x_min":0,"x_max":536,"ha":536,"o":"m 50 681 l 322 681 l 322 624 l 246 624 l 246 66 l 300 66 q 372 66 416 95 q 459 124 485 189 l 530 179 l 483 -29 l 432 -29 l 434 0 l 50 0 l 50 57 l 107 57 l 107 624 l 50 624 z"},"3":{"x_min":0,"x_max":511,"ha":511,"o":"m 304 499 l 199 499 q 166 499 145 488 q 125 477 103 448 l 59 464 l 118 626 l 161 613 l 159 593 l 356 593 q 369 593 377 593 q 384 594 391 595 l 421 533 l 287 400 q 365 384 409 336 q 452 287 452 215 q 452 120 383 53 q 314 -14 215 -14 q 158 -14 112 6 q 66 25 30 65 l 115 150 q 151 106 192 82 q 232 58 270 58 q 309 58 334 83 q 359 107 359 145 q 359 203 308 255 q 257 306 201 306 q 192 306 181 305 q 171 303 158 300 l 135 332 z"},";":{"x_min":0,"x_max":255,"ha":255,"o":"m 98 -86 l 83 -56 q 103 -44 114 -32 q 125 -20 128 -5 l 117 -5 q 99 -5 84 11 q 70 27 70 49 q 70 73 87 89 q 104 105 129 105 q 155 105 172 85 q 188 65 188 33 q 188 -5 164 -37 q 141 -68 98 -86 z m 128 357 q 153 357 170 340 q 187 323 187 298 q 187 273 170 256 q 152 239 128 239 q 104 239 86 256 q 69 274 69 298 q 69 322 86 340 q 104 357 128 357 z"},"J":{"x_min":0,"x_max":362,"ha":362,"o":"m 76 681 l 329 681 l 329 624 l 272 624 l 272 187 q 272 86 231 36 q 190 -14 108 -14 q 83 -14 60 -9 q 37 -4 20 6 l 16 87 q 38 76 49 73 q 60 70 71 70 q 104 70 118 89 q 133 108 133 154 l 133 624 l 76 624 z"},"V":{"x_min":0,"x_max":629,"ha":629,"o":"m 511 577 q 496 569 484 566 q 473 563 461 563 q 446 563 416 571 q 386 578 368 578 q 329 578 296 552 q 263 525 232 470 l 352 125 z m 593 686 l 618 660 q 604 641 583 583 q 579 571 577 565 l 416 111 q 405 82 398 54 q 390 27 385 0 l 250 0 q 243 31 236 56 q 229 81 221 103 l 39 624 l -7 624 l -7 681 l 228 681 l 228 624 l 182 624 l 218 515 q 265 607 316 646 q 367 686 439 686 q 457 686 490 679 q 524 673 541 673 q 557 673 570 676 q 583 680 593 686 z"},"\"":{"x_min":0,"x_max":339,"ha":339,"o":"m 242 418 l 206 642 q 206 646 205 650 q 205 654 205 661 q 205 686 218 700 q 230 714 252 714 q 274 714 286 700 q 299 687 299 662 q 299 656 297 645 q 297 643 297 642 l 261 418 z m 78 418 l 42 642 q 42 646 41 650 q 41 654 41 661 q 41 687 53 700 q 65 714 87 714 q 110 714 122 700 q 134 687 134 661 q 134 653 134 649 q 133 645 133 642 l 97 418 z"},"7":{"x_min":0,"x_max":511,"ha":511,"o":"m 111 626 l 154 620 l 156 593 l 428 593 l 454 533 q 370 420 330 294 q 291 168 291 12 l 291 0 l 164 0 l 164 15 q 164 143 213 260 q 263 377 368 498 l 203 498 q 164 498 147 487 q 131 476 121 445 l 73 455 z"},"S":{"x_min":0,"x_max":585,"ha":585,"o":"m 10 94 l 97 207 q 159 137 217 103 q 275 68 331 68 q 379 68 411 96 q 442 124 442 165 q 442 205 415 231 q 387 256 304 286 q 152 340 110 381 q 67 422 67 487 q 67 571 135 633 q 202 694 295 694 q 337 694 380 681 q 423 669 467 644 l 491 673 l 532 646 l 453 537 q 394 580 346 602 q 298 623 260 623 q 217 623 191 601 q 164 579 164 543 q 164 514 190 492 q 216 470 285 443 q 303 436 336 424 q 439 386 475 358 q 506 333 522 301 q 537 268 537 226 q 537 129 458 57 q 379 -14 270 -14 q 201 -14 133 14 q 65 42 10 94 z"},"}":{"x_min":0,"x_max":500,"ha":500,"o":"m 281 571 l 281 473 q 281 394 309 364 q 336 334 414 327 l 414 294 q 337 288 309 258 q 281 228 281 148 l 281 50 q 281 -46 240 -83 q 199 -119 90 -119 l 85 -119 l 85 -91 q 148 -90 171 -65 q 194 -40 194 37 l 194 104 q 194 215 221 255 q 249 294 323 310 q 250 326 222 365 q 194 405 194 516 l 194 583 q 194 660 171 686 q 147 711 85 712 l 85 740 l 90 740 q 199 740 240 704 q 281 667 281 571 z"},"Z":{"x_min":0,"x_max":538,"ha":538,"o":"m 76 708 l 131 708 l 131 681 l 467 681 l 509 587 q 496 573 483 557 q 471 542 453 519 l 125 110 l 290 110 q 381 110 413 131 q 445 151 457 206 l 509 206 l 487 -30 l 432 -30 l 430 0 l 152 0 q 123 0 102 -1 q 81 -1 61 -3 l 17 89 q 45 115 76 154 q 80 160 82 162 l 417 580 l 268 580 q 185 580 156 561 q 128 542 109 493 l 54 493 z"},"x":{"x_min":0,"x_max":512,"ha":512,"o":"m 36 481 l 265 481 l 265 432 l 212 432 l 291 301 l 381 432 l 330 432 l 330 481 l 482 481 l 482 432 l 444 432 l 320 252 l 446 48 l 493 48 l 493 0 l 257 0 l 257 48 l 309 48 l 222 190 l 123 48 l 172 48 l 172 0 l 12 0 l 12 48 l 60 48 l 193 239 l 76 432 l 37 432 z"},")":{"x_min":0,"x_max":314,"ha":314,"o":"m 72 694 q 166 607 213 502 q 260 398 260 278 q 260 158 213 54 q 166 -50 72 -137 l 26 -100 q 83 -14 111 80 q 139 174 139 278 q 139 384 111 477 q 83 571 26 657 z"},"&":{"x_min":0,"x_max":721,"ha":721,"o":"m 293 459 q 352 490 377 518 q 402 546 402 580 q 402 609 385 626 q 368 644 340 644 q 308 644 286 617 q 263 590 263 551 q 263 533 270 511 q 277 489 293 459 z m 434 63 q 384 23 335 5 q 287 -14 232 -14 q 142 -14 80 44 q 18 103 18 186 q 18 254 61 310 q 103 366 189 411 q 176 438 169 464 q 163 489 163 514 q 163 589 220 641 q 278 694 359 694 q 422 694 462 663 q 502 632 502 584 q 502 539 461 501 q 421 463 317 415 q 347 357 385 302 q 424 246 469 194 q 492 224 505 257 q 519 291 519 314 q 519 337 506 351 q 492 365 466 369 l 466 419 l 655 419 l 655 365 l 589 365 q 586 311 567 257 q 547 203 510 148 q 546 110 575 94 q 604 77 632 77 q 650 77 666 83 q 682 89 694 102 l 720 74 q 691 33 653 9 q 614 -14 577 -14 q 543 -14 509 4 q 476 22 434 63 z m 216 356 q 177 330 159 299 q 140 268 140 231 q 140 167 183 123 q 226 79 289 79 q 317 79 342 87 q 367 95 387 111 q 345 154 307 208 q 269 262 216 356 z"},"_":{"x_min":0,"x_max":500,"ha":500,"o":"m 500 -152 l 500 -236 l 0 -236 l 0 -152 z"},"v":{"x_min":0,"x_max":513,"ha":513,"o":"m 415 395 q 407 389 399 386 q 391 384 378 384 q 363 384 326 395 q 289 406 272 406 q 250 406 230 394 q 210 382 191 358 l 296 110 z m 143 495 q 147 471 156 446 q 164 421 176 395 q 218 451 248 471 q 278 492 312 492 q 335 492 376 482 q 418 472 436 472 q 449 472 460 476 q 471 479 486 489 l 507 468 q 495 448 476 404 q 472 395 470 390 l 339 77 q 331 57 325 38 q 319 20 315 0 l 217 0 q 211 23 194 62 q 192 67 191 69 l 47 396 l 7 379 l -10 417 z"},"O":{"x_min":0,"x_max":786,"ha":786,"o":"m 178 398 q 178 250 248 149 q 318 49 421 49 q 508 49 558 111 q 608 173 608 282 q 608 429 539 530 q 469 631 370 631 q 279 631 229 570 q 178 509 178 398 z m 393 -14 q 238 -14 137 86 q 35 187 35 340 q 35 494 137 594 q 238 694 393 694 q 547 694 649 594 q 751 494 751 340 q 751 187 649 86 q 547 -14 393 -14 z"},"(":{"x_min":0,"x_max":314,"ha":314,"o":"m 241 694 l 288 657 q 231 571 203 477 q 175 383 175 279 q 175 174 203 81 q 231 -13 288 -99 l 241 -137 q 147 -50 101 54 q 54 158 54 279 q 54 399 101 503 q 147 607 241 694 z"},"C":{"x_min":0,"x_max":630,"ha":630,"o":"m 623 137 q 565 59 497 22 q 428 -14 341 -14 q 210 -14 123 82 q 35 178 35 323 q 35 394 57 457 q 80 520 123 572 q 172 630 239 662 q 307 694 379 694 q 441 694 490 676 q 539 659 582 621 l 612 646 l 649 606 l 489 463 l 452 502 q 464 513 471 525 q 477 538 477 552 q 477 586 446 609 q 415 633 368 633 q 282 633 225 564 q 169 496 169 388 q 169 261 240 172 q 312 83 412 83 q 461 83 503 105 q 545 126 583 172 z"},"W":{"x_min":0,"x_max":912,"ha":912,"o":"m 795 577 q 780 569 768 566 q 757 563 745 563 q 730 563 699 571 q 668 578 650 578 q 614 578 582 552 q 550 526 521 474 l 634 117 z m 877 686 l 902 656 q 885 635 866 579 q 863 570 861 565 l 700 111 q 686 70 679 46 q 673 22 669 0 l 546 0 q 540 29 532 56 q 525 83 516 108 l 458 281 l 400 117 q 388 85 381 57 q 373 28 368 0 l 242 0 q 237 21 231 44 q 225 67 213 103 l 41 624 l -6 624 l -6 681 l 225 681 l 225 624 l 181 624 l 338 117 l 429 369 l 347 624 l 305 624 l 305 681 l 509 681 l 509 624 l 475 624 l 506 522 q 555 608 606 647 q 657 686 722 686 q 738 686 772 679 q 807 673 825 673 q 841 673 854 676 q 867 680 877 686 z"},"A":{"x_min":0,"x_max":649,"ha":649,"o":"m 289 569 l 177 257 l 395 257 z m 258 681 l 388 681 l 607 57 l 652 57 l 652 0 l 401 0 l 401 57 l 464 57 l 418 191 l 154 191 l 106 57 l 165 57 l 165 0 l -10 0 l -10 57 l 36 57 z"},"f":{"x_min":0,"x_max":327,"ha":327,"o":"m 50 0 l 50 48 l 94 48 l 94 405 l 29 405 l 52 467 l 101 467 q 86 486 79 505 q 72 524 72 543 q 72 599 127 647 q 182 695 246 695 q 279 695 307 683 q 335 670 355 648 l 278 584 q 256 613 241 624 q 227 635 212 635 q 189 635 175 618 q 161 602 161 576 q 161 531 195 499 q 229 467 278 467 l 324 467 l 301 405 l 216 405 l 216 48 l 283 48 l 283 0 z"},"Q":{"x_min":0,"x_max":786,"ha":786,"o":"m 428 -12 q 445 -14 526 -41 q 608 -68 681 -68 q 696 -68 707 -67 q 718 -65 727 -63 l 639 -174 l 634 -174 q 592 -174 546 -162 q 500 -151 447 -127 q 437 -122 417 -112 q 335 -73 296 -73 q 271 -73 244 -83 q 217 -92 185 -113 l 140 -64 q 155 -59 213 -35 q 271 -11 311 -6 q 184 22 109 115 q 35 208 35 340 q 35 494 137 594 q 238 694 393 694 q 547 694 649 594 q 751 494 751 340 q 751 195 662 99 q 574 2 428 -12 z m 178 398 q 178 250 248 149 q 318 49 421 49 q 508 49 558 111 q 608 173 608 282 q 608 429 539 530 q 469 631 370 631 q 279 631 229 570 q 178 509 178 398 z"},"w":{"x_min":0,"x_max":768,"ha":768,"o":"m 662 395 q 655 389 647 386 q 639 384 625 384 q 610 384 573 395 q 537 406 519 406 q 497 406 477 394 q 457 382 442 360 l 546 103 z m 143 495 q 147 473 155 451 q 162 428 175 395 l 293 103 l 360 264 l 305 396 l 265 379 l 247 417 l 391 495 q 399 469 408 446 q 417 422 428 398 q 470 451 500 471 q 530 492 563 492 q 583 492 622 482 q 661 471 679 471 q 694 471 708 476 q 721 480 732 489 l 752 468 q 736 442 719 398 q 717 393 716 390 l 591 77 q 582 52 576 34 q 570 16 567 0 l 472 0 q 467 16 461 31 q 456 47 446 69 l 388 201 l 336 77 q 330 62 324 44 q 318 25 311 0 l 217 0 q 207 30 201 44 q 196 58 191 69 l 47 396 l 7 379 l -10 417 z"},"-":{"x_min":0,"x_max":315,"ha":315,"o":"m 33 295 l 282 295 l 282 195 l 33 195 z"},"E":{"x_min":0,"x_max":600,"ha":600,"o":"m 499 681 l 549 559 l 506 537 q 474 579 432 597 q 390 615 323 615 l 246 615 l 246 442 l 454 442 l 454 494 l 506 494 l 506 320 l 454 320 l 454 376 l 246 376 l 246 66 l 294 66 q 385 66 440 95 q 496 124 526 187 l 571 172 l 502 -3 q 480 -1 458 -1 q 435 0 412 0 l 50 0 l 50 57 l 107 57 l 107 624 l 50 624 l 50 681 z"},"s":{"x_min":0,"x_max":406,"ha":406,"o":"m 367 446 l 314 366 q 274 404 244 421 q 213 438 184 438 q 163 438 148 425 q 134 412 134 393 q 134 354 252 302 l 256 300 q 331 267 356 235 q 381 204 381 153 q 381 83 325 34 q 269 -14 186 -14 q 135 -14 88 5 q 41 23 5 58 l 71 149 q 119 97 157 73 q 195 50 231 50 q 258 50 275 66 q 293 83 293 108 q 293 146 202 189 l 194 193 q 98 239 73 271 q 47 303 47 351 q 47 413 94 454 q 142 495 215 495 q 254 495 292 483 q 329 471 367 446 z"},">":{"x_min":0,"x_max":833,"ha":833,"o":"m 704 337 l 704 259 l 129 23 l 129 112 l 585 298 l 129 484 l 129 574 z"},"l":{"x_min":0,"x_max":303,"ha":303,"o":"m 256 690 l 256 640 l 213 625 l 213 48 l 257 48 l 257 0 l 46 0 l 46 48 l 91 48 l 91 585 l 46 570 l 46 620 z"},"8":{"x_min":0,"x_max":511,"ha":511,"o":"m 152 331 q 118 351 99 380 q 80 410 80 444 q 80 510 135 558 q 191 606 269 606 q 342 606 393 563 q 444 521 444 460 q 444 420 426 389 q 407 358 368 331 q 415 302 438 264 q 462 227 462 181 q 462 103 400 44 q 338 -14 252 -14 q 165 -14 105 38 q 46 90 46 166 q 46 212 73 254 q 100 296 152 331 z m 199 303 q 167 282 150 258 q 134 235 134 209 q 134 157 187 113 q 240 70 305 70 q 343 70 367 90 q 391 110 391 142 q 391 178 354 211 q 316 244 199 303 z m 323 356 q 350 375 361 391 q 372 407 372 427 q 372 467 326 506 q 279 545 235 545 q 206 545 188 528 q 170 511 170 484 q 170 454 201 427 q 232 399 323 356 z"},"\\":{"x_min":0,"x_max":311,"ha":311,"o":"m -12 694 l 63 694 l 335 -93 l 260 -93 z"},"e":{"x_min":0,"x_max":515,"ha":515,"o":"m 419 283 l 168 202 q 188 142 227 110 q 266 78 321 78 q 359 78 393 92 q 427 106 457 135 l 487 104 q 442 47 383 16 q 324 -14 257 -14 q 159 -14 96 57 q 33 127 33 237 q 33 346 103 420 q 172 494 271 494 q 317 494 358 475 q 398 455 430 417 q 453 390 469 355 q 485 320 485 308 q 485 301 455 293 q 434 288 419 283 z m 361 321 q 343 376 312 407 q 281 437 243 437 q 202 437 174 400 q 147 364 147 309 q 147 295 148 282 q 149 269 152 255 z"},"b":{"x_min":0,"x_max":559,"ha":559,"o":"m 200 174 q 200 110 222 79 q 244 48 290 48 q 343 48 376 94 q 409 141 409 217 q 409 304 373 358 q 337 412 281 412 q 261 412 242 404 q 222 396 200 380 z m 243 690 l 243 640 l 200 625 l 200 435 q 241 464 278 480 q 316 495 347 495 q 426 495 476 436 q 526 377 526 284 q 526 162 444 74 q 362 -14 250 -14 q 205 -14 158 3 q 112 20 78 48 l 78 585 l 33 570 l 33 620 z"},"%":{"x_min":0,"x_max":706,"ha":706,"o":"m 612 111 q 612 168 579 223 q 546 278 510 278 q 487 278 473 260 q 459 243 459 213 q 459 155 492 100 q 526 45 562 45 q 584 45 598 63 q 612 81 612 111 z m 536 337 q 596 337 633 288 q 671 240 671 161 q 671 83 633 34 q 596 -14 536 -14 q 477 -14 438 34 q 400 83 400 161 q 400 239 438 288 q 476 337 536 337 z m 246 385 q 246 438 213 492 q 180 547 144 547 q 121 547 107 529 q 93 511 93 481 q 93 425 126 369 q 159 314 195 314 q 219 314 232 333 q 246 352 246 385 z m 491 606 l 560 606 l 216 -14 l 147 -14 z m 170 606 q 230 606 268 558 q 305 509 305 431 q 305 352 268 303 q 230 255 170 255 q 110 255 72 304 q 34 353 34 431 q 34 509 72 558 q 110 606 170 606 z"},"m":{"x_min":0,"x_max":910,"ha":910,"o":"m 211 492 l 217 492 l 215 417 q 266 457 307 476 q 348 495 383 495 q 424 495 458 473 q 492 451 508 413 q 559 455 602 475 q 645 495 682 495 q 746 495 783 456 q 820 417 820 349 l 820 48 l 865 48 l 865 0 l 654 0 l 654 48 l 698 48 l 698 334 q 698 372 680 390 q 663 409 627 409 q 602 409 573 396 q 545 383 518 359 l 518 48 l 563 48 l 563 0 l 352 0 l 352 48 l 396 48 l 396 334 q 396 372 378 390 q 360 409 325 409 q 299 409 271 396 q 243 383 216 359 l 216 48 l 261 48 l 261 0 l 50 0 l 50 48 l 94 48 l 94 410 l 50 398 l 50 445 z"},"#":{"x_min":0,"x_max":769,"ha":769,"o":"m 477 419 l 343 419 l 297 290 l 431 290 z m 449 713 l 373 500 l 504 500 l 580 713 l 669 713 l 593 500 l 735 500 l 706 419 l 564 419 l 519 291 l 669 291 l 640 209 l 490 209 l 415 -3 l 325 -3 l 401 209 l 270 209 l 195 -3 l 105 -3 l 181 209 l 34 209 l 63 291 l 210 291 l 255 419 l 99 419 l 129 500 l 284 500 l 360 713 z"},",":{"x_min":0,"x_max":255,"ha":255,"o":"m 98 -86 l 83 -56 q 103 -44 114 -32 q 125 -20 128 -5 l 117 -5 q 99 -5 84 11 q 70 27 70 49 q 70 73 87 89 q 104 105 129 105 q 155 105 172 85 q 188 65 188 33 q 188 -5 164 -37 q 141 -68 98 -86 z"},"n":{"x_min":0,"x_max":620,"ha":620,"o":"m 94 48 l 94 410 l 50 398 l 50 445 l 211 492 l 217 492 l 216 412 q 267 454 311 475 q 354 495 392 495 q 456 495 493 456 q 531 417 531 349 l 531 48 l 575 48 l 575 0 l 364 0 l 364 48 l 409 48 l 409 334 q 409 371 391 390 q 372 409 337 409 q 308 409 276 395 q 244 380 216 354 l 216 48 l 261 48 l 261 0 l 50 0 l 50 48 z"},"h":{"x_min":0,"x_max":617,"ha":617,"o":"m 256 690 l 256 640 l 213 625 l 213 412 q 263 454 306 474 q 350 495 388 495 q 452 495 489 456 q 527 417 527 349 l 527 48 l 572 48 l 572 0 l 361 0 l 361 48 l 405 48 l 405 334 q 405 372 386 390 q 367 409 329 409 q 304 409 272 394 q 240 379 213 354 l 213 48 l 257 48 l 257 0 l 46 0 l 46 48 l 91 48 l 91 585 l 46 570 l 46 620 z"},"z":{"x_min":0,"x_max":423,"ha":423,"o":"m 75 509 l 121 509 l 123 481 l 362 481 l 389 429 q 379 419 369 408 q 359 396 349 383 l 123 102 q 150 100 172 99 q 194 98 208 98 q 269 98 302 115 q 335 132 357 173 l 399 169 l 363 -30 l 317 -30 l 316 0 l 49 0 l 12 65 l 279 395 q 269 396 250 397 q 219 400 206 400 q 155 400 125 385 q 96 371 78 338 l 39 346 z"},"B":{"x_min":0,"x_max":621,"ha":621,"o":"m 241 380 l 241 62 l 290 62 q 373 62 415 102 q 456 141 456 220 q 456 297 415 338 q 374 380 298 380 z m 241 443 l 285 443 q 337 443 365 466 q 392 488 392 531 q 392 574 363 596 q 333 618 277 618 l 241 618 z m 397 419 q 490 409 542 357 q 594 304 594 220 q 594 122 527 61 q 460 0 351 0 l 50 0 l 50 57 l 107 57 l 107 624 l 50 624 l 50 681 l 315 681 q 417 681 469 646 q 520 611 520 541 q 520 496 487 463 q 455 431 397 419 z"},"K":{"x_min":0,"x_max":671,"ha":671,"o":"m 50 681 l 298 681 l 298 624 l 241 624 l 241 384 l 470 624 l 409 624 l 409 681 l 614 681 l 614 624 l 561 624 l 387 442 l 613 57 l 664 57 l 664 0 l 409 0 l 409 57 l 460 57 l 298 348 l 241 289 l 241 57 l 298 57 l 298 0 l 50 0 l 50 57 l 107 57 l 107 624 l 50 624 z"},"R":{"x_min":0,"x_max":674,"ha":674,"o":"m 244 618 l 244 276 l 302 276 q 386 276 434 323 q 482 370 482 452 q 482 530 433 574 q 385 618 298 618 z m 50 681 l 316 681 q 457 681 538 620 q 619 559 619 454 q 619 372 570 316 q 521 260 431 238 l 577 57 l 627 57 l 627 0 l 451 0 q 438 23 411 60 l 409 63 l 300 216 l 244 216 l 244 57 l 300 57 l 300 0 l 50 0 l 50 57 l 107 57 l 107 624 l 50 624 z"},"T":{"x_min":0,"x_max":574,"ha":574,"o":"m 51 705 l 104 705 l 104 681 l 470 681 l 470 705 l 523 705 l 547 515 l 495 515 q 484 568 458 592 q 432 615 383 615 l 356 615 l 356 57 l 418 57 l 418 0 l 156 0 l 156 57 l 218 57 l 218 615 l 191 615 q 142 615 116 592 q 89 568 79 515 l 27 515 z"},"P":{"x_min":0,"x_max":633,"ha":633,"o":"m 246 619 l 246 339 q 246 285 264 263 q 282 240 324 240 q 385 240 422 289 q 458 337 458 419 q 458 514 410 566 q 363 619 277 619 z m 50 681 l 303 681 q 446 681 525 615 q 605 550 605 433 q 605 325 532 255 q 459 184 350 184 q 320 184 294 188 q 269 193 246 202 l 246 57 l 313 57 l 313 0 l 50 0 l 50 57 l 107 57 l 107 624 l 50 624 z"},"|":{"x_min":0,"x_max":500,"ha":500,"o":"m 294 764 l 294 -236 l 207 -236 l 207 764 z"},"t":{"x_min":0,"x_max":337,"ha":337,"o":"m 178 592 l 212 584 l 212 476 l 307 476 l 301 436 q 299 423 294 419 q 290 415 276 415 l 212 415 l 212 129 q 212 92 223 75 q 234 59 258 59 q 269 59 280 63 q 291 67 306 77 l 327 46 q 296 16 261 1 q 227 -14 191 -14 q 137 -14 113 14 q 89 42 89 106 l 89 415 l 38 415 l 38 454 q 91 476 126 510 q 161 545 178 592 z"},"M":{"x_min":0,"x_max":823,"ha":823,"o":"m 85 681 l 262 681 q 263 677 272 648 q 281 619 298 564 l 406 218 l 534 570 q 543 596 552 624 q 562 652 570 681 l 748 681 l 748 624 l 690 624 l 745 57 l 794 57 l 794 0 l 547 0 l 547 57 l 612 57 l 574 512 q 516 359 475 235 q 435 111 407 0 l 347 0 q 313 132 275 260 q 236 388 193 512 l 138 57 l 201 57 l 201 0 l 27 0 l 27 57 l 72 57 l 140 624 l 85 624 z"},"g":{"x_min":0,"x_max":513,"ha":513,"o":"m 158 122 q 99 142 66 188 q 33 233 33 294 q 33 380 96 437 q 159 494 256 494 q 283 494 309 489 q 334 484 359 474 q 374 516 394 535 q 414 555 442 555 q 456 555 467 553 q 477 550 487 545 l 466 479 q 457 483 448 486 q 439 488 431 488 q 419 488 412 482 q 406 476 406 465 q 406 463 440 412 q 475 362 475 301 q 475 220 412 165 q 348 109 258 109 q 248 109 222 112 q 218 113 216 113 q 209 92 199 76 q 190 60 176 44 q 204 48 231 51 q 258 53 284 53 q 371 53 418 25 q 465 -3 465 -55 q 465 -111 408 -153 q 352 -195 272 -195 q 208 -195 169 -168 q 130 -142 130 -99 q 130 -75 145 -54 q 160 -33 190 -16 q 157 -17 125 -22 q 94 -27 63 -37 l 26 15 q 76 30 109 56 q 142 83 158 122 z m 245 -17 q 230 -28 224 -40 q 218 -51 218 -66 q 218 -98 242 -119 q 266 -141 301 -141 q 326 -141 343 -127 q 359 -112 359 -91 q 359 -61 328 -41 q 297 -21 245 -17 z m 154 322 q 154 252 187 205 q 219 157 267 157 q 308 157 331 188 q 354 219 354 275 q 354 348 322 397 q 290 446 243 446 q 203 446 178 412 q 154 379 154 322 z"},"j":{"x_min":0,"x_max":292,"ha":292,"o":"m 212 495 l 217 495 q 215 479 214 461 q 213 444 213 424 l 213 21 q 213 -74 166 -125 q 119 -175 21 -186 l 14 -142 q 56 -127 73 -99 q 91 -71 91 -15 l 91 410 l 46 398 l 46 445 z m 78 595 q 78 624 98 644 q 118 664 147 664 q 176 664 197 644 q 217 624 217 595 q 217 566 196 546 q 175 525 147 525 q 120 525 99 546 q 78 567 78 595 z"},"i":{"x_min":0,"x_max":308,"ha":308,"o":"m 215 495 l 220 495 q 218 475 217 457 q 216 439 216 424 l 216 48 l 261 48 l 261 0 l 50 0 l 50 48 l 94 48 l 94 410 l 50 398 l 50 445 z m 81 595 q 81 623 102 644 q 122 664 151 664 q 180 664 200 644 q 220 624 220 595 q 220 566 200 546 q 179 525 151 525 q 123 525 102 546 q 81 567 81 595 z"},"y":{"x_min":0,"x_max":522,"ha":522,"o":"m 420 390 q 412 386 403 385 q 395 383 385 383 q 370 383 335 394 q 300 405 281 405 q 260 405 239 391 q 217 378 196 352 l 298 132 z m 140 495 q 148 469 158 443 q 168 417 180 390 q 223 444 257 467 q 291 490 326 490 q 352 490 391 481 q 430 471 445 471 q 458 471 470 475 q 482 479 497 488 l 518 466 q 508 450 498 432 q 488 413 476 387 l 262 -66 q 230 -132 194 -164 q 158 -195 114 -195 q 95 -195 77 -190 q 60 -186 46 -177 l 74 -75 q 97 -84 112 -88 q 126 -92 139 -92 q 166 -92 186 -77 q 207 -63 219 -35 l 240 10 l 47 396 l 7 379 l -10 417 z"},"@":{"x_min":0,"x_max":986,"ha":986,"o":"m 637 402 l 662 485 l 746 485 l 662 184 l 661 181 q 654 152 654 137 q 654 113 665 100 q 675 87 694 87 q 710 87 735 98 q 759 108 780 125 q 833 168 862 233 q 891 299 891 378 q 891 514 798 598 q 705 681 552 681 q 467 681 391 649 q 315 618 258 559 q 198 498 168 419 q 138 341 138 245 q 138 161 167 95 q 196 30 255 -19 q 307 -62 375 -85 q 444 -108 523 -108 q 604 -108 680 -83 q 755 -58 828 -6 l 846 -29 q 774 -83 692 -111 q 611 -138 523 -138 q 431 -138 354 -115 q 276 -93 219 -50 q 146 5 107 85 q 68 166 68 262 q 68 361 110 448 q 152 535 232 601 q 298 655 377 683 q 457 711 546 711 q 716 711 818 619 q 920 527 920 374 q 920 296 891 229 q 862 161 809 113 q 779 86 746 73 q 713 59 681 59 q 633 59 607 85 q 580 110 577 159 q 546 108 510 84 q 474 60 429 60 q 364 60 325 105 q 287 150 287 226 q 287 281 311 333 q 335 385 380 428 q 413 460 452 477 q 491 493 531 493 q 575 493 602 470 q 629 447 637 402 z m 610 377 q 610 417 592 442 q 573 466 543 466 q 512 466 486 444 q 460 422 434 372 q 406 320 392 270 q 377 220 377 179 q 377 139 395 114 q 413 90 441 90 q 471 90 497 110 q 523 130 550 175 q 577 222 594 277 q 610 333 610 377 z"},".":{"x_min":0,"x_max":255,"ha":255,"o":"m 128 104 q 152 104 170 87 q 187 69 187 45 q 187 21 169 3 q 152 -14 128 -14 q 105 -14 87 4 q 69 22 69 45 q 69 69 86 86 q 104 104 128 104 z"},"p":{"x_min":0,"x_max":590,"ha":590,"o":"m 213 391 l 213 166 q 213 99 236 68 q 259 37 308 37 q 366 37 397 85 q 428 134 428 224 q 428 314 392 369 q 355 424 296 424 q 268 424 224 397 q 217 393 213 391 z m 91 410 l 46 398 l 46 445 l 205 492 l 211 492 l 213 438 q 254 467 290 481 q 326 495 361 495 q 444 495 500 427 q 557 358 557 254 q 557 138 491 62 q 426 -14 327 -14 q 294 -14 266 -6 q 237 3 213 20 l 213 -134 l 270 -134 l 270 -182 l 46 -182 l 46 -134 l 91 -134 z"},"X":{"x_min":0,"x_max":620,"ha":620,"o":"m 33 681 l 296 681 l 296 624 l 231 624 l 350 421 l 472 624 l 419 624 l 419 681 l 589 681 l 589 624 l 548 624 l 389 355 l 565 57 l 606 57 l 606 0 l 345 0 l 345 57 l 409 57 l 274 287 l 133 57 l 198 57 l 198 0 l 12 0 l 12 57 l 56 57 l 236 351 l 76 624 l 33 624 z"},"*":{"x_min":0,"x_max":500,"ha":500,"o":"m 205 681 l 294 681 l 269 504 l 428 584 l 456 496 l 282 467 l 407 341 l 332 286 l 250 443 l 169 286 l 93 341 l 218 467 l 44 496 l 72 585 l 231 503 z"},"Y":{"x_min":0,"x_max":602,"ha":602,"o":"m -7 681 l 250 681 l 250 624 l 192 624 l 340 350 l 481 624 l 425 624 l 425 681 l 595 681 l 595 624 l 555 624 l 278 94 q 293 103 308 107 q 322 111 336 111 q 352 111 376 104 q 400 98 410 98 q 437 98 452 106 q 467 114 481 134 l 518 121 q 492 48 461 17 q 429 -15 384 -15 q 359 -15 312 -3 q 264 9 244 9 q 231 9 218 5 q 205 1 192 -7 l 160 19 l 268 220 l 36 624 l -7 624 z"},"c":{"x_min":0,"x_max":494,"ha":494,"o":"m 469 406 l 382 325 q 358 382 328 409 q 298 437 259 437 q 209 437 177 395 q 144 353 144 287 q 144 201 194 138 q 244 74 309 74 q 345 74 377 91 q 409 108 436 141 l 464 117 q 431 56 376 21 q 321 -14 257 -14 q 156 -14 94 51 q 32 116 32 221 q 32 334 107 415 q 182 495 285 495 q 339 495 385 473 q 431 451 469 406 z"},"!":{"x_min":0,"x_max":306,"ha":306,"o":"m 153 104 q 178 104 195 87 q 212 70 212 45 q 212 21 194 3 q 177 -14 153 -14 q 129 -14 112 4 q 94 21 94 45 q 94 69 112 86 q 129 104 153 104 z m 182 206 l 123 206 q 123 322 101 452 q 78 582 78 601 q 78 645 98 669 q 118 694 153 694 q 188 694 207 668 q 227 643 227 598 q 227 581 205 452 q 182 323 182 206 z"},"/":{"x_min":0,"x_max":311,"ha":311,"o":"m 248 694 l 323 694 l 50 -93 l -24 -93 z"},"[":{"x_min":0,"x_max":314,"ha":314,"o":"m 90 681 l 294 681 l 294 625 l 202 625 l 202 -81 l 294 -81 l 294 -137 l 90 -137 z"},"6":{"x_min":0,"x_max":511,"ha":511,"o":"m 233 334 q 197 334 174 306 q 150 278 150 234 q 150 162 188 106 q 225 51 275 51 q 314 51 337 76 q 359 102 359 147 q 359 221 321 277 q 284 334 233 334 z m 133 329 q 160 365 197 384 q 234 403 279 403 q 355 403 408 347 q 460 291 460 207 q 460 113 401 50 q 342 -14 256 -14 q 156 -14 92 69 q 28 152 28 285 q 28 432 97 519 q 167 606 284 606 q 328 606 366 591 q 404 575 428 548 l 351 475 q 326 505 297 521 q 269 537 240 537 q 188 537 158 496 q 129 455 129 382 q 129 368 130 355 q 131 342 133 329 z"},"r":{"x_min":0,"x_max":413,"ha":413,"o":"m 377 498 l 416 481 l 357 351 q 331 368 314 375 q 296 381 279 381 q 250 381 233 359 q 216 337 216 299 l 216 48 l 273 48 l 273 0 l 50 0 l 50 48 l 94 48 l 94 338 q 94 360 90 366 q 86 373 76 379 l 55 357 l 22 387 l 107 495 q 146 475 167 454 q 188 433 198 406 q 225 455 246 475 q 268 495 292 495 q 306 495 323 489 q 341 483 361 472 z"},"2":{"x_min":0,"x_max":511,"ha":511,"o":"m 186 99 l 322 99 q 361 99 378 111 q 396 124 405 155 l 449 155 l 424 -25 l 381 -25 l 379 0 l 81 0 l 60 73 q 200 167 268 249 q 336 331 336 405 q 336 458 298 502 q 261 546 215 546 q 184 546 165 523 q 145 500 145 464 q 145 426 167 395 q 188 363 238 331 l 161 243 q 108 269 80 312 q 51 356 51 410 q 51 490 113 548 q 174 606 260 606 q 348 606 403 558 q 458 510 458 435 q 458 360 396 283 q 334 206 186 99 z"},"{":{"x_min":0,"x_max":500,"ha":500,"o":"m 415 712 q 353 711 329 686 q 306 660 306 583 l 306 516 q 306 406 279 366 q 251 326 177 310 q 251 294 279 254 q 306 214 306 104 l 306 37 q 306 -40 329 -65 q 352 -90 415 -91 l 415 -119 l 410 -119 q 302 -119 261 -83 q 220 -47 220 50 l 220 148 q 220 227 192 257 q 164 288 87 294 l 87 327 q 165 334 192 364 q 220 394 220 473 l 220 571 q 220 668 261 704 q 303 740 415 740 z"},"9":{"x_min":0,"x_max":511,"ha":511,"o":"m 266 258 q 302 258 326 286 q 349 313 349 358 q 349 431 312 486 q 274 542 224 542 q 185 542 163 516 q 141 491 141 445 q 141 371 178 314 q 215 258 266 258 z m 366 264 q 339 227 302 208 q 265 189 221 189 q 145 189 92 245 q 40 301 40 385 q 40 479 99 542 q 157 606 244 606 q 344 606 408 524 q 471 441 471 308 q 471 161 401 73 q 332 -14 215 -14 q 171 -14 134 1 q 96 17 72 44 l 149 118 q 174 87 203 71 q 231 55 259 55 q 311 55 341 97 q 371 138 371 211 q 371 222 370 234 q 369 247 366 264 z"}," ":{"x_min":0,"x_max":255,"ha":255,"o":""},"I":{"x_min":0,"x_max":352,"ha":352,"o":"m 50 681 l 303 681 l 303 624 l 246 624 l 246 57 l 303 57 l 303 0 l 50 0 l 50 57 l 107 57 l 107 624 l 50 624 z"},"H":{"x_min":0,"x_max":726,"ha":726,"o":"m 50 0 l 50 57 l 107 57 l 107 624 l 50 624 l 50 681 l 303 681 l 303 624 l 246 624 l 246 439 l 480 439 l 480 624 l 423 624 l 423 681 l 676 681 l 676 624 l 619 624 l 619 57 l 676 57 l 676 0 l 423 0 l 423 57 l 480 57 l 480 374 l 246 374 l 246 57 l 303 57 l 303 0 z"},"4":{"x_min":0,"x_max":511,"ha":511,"o":"m 292 456 l 112 208 l 289 208 z m 44 141 l 44 204 l 326 593 l 397 593 l 397 573 q 397 572 397 569 q 396 553 396 540 l 396 208 l 472 210 l 457 141 l 396 141 l 396 47 l 450 47 l 450 0 l 224 0 l 224 47 l 288 47 l 288 141 z"},"~":{"x_min":0,"x_max":833,"ha":833,"o":"m 747 293 q 697 258 651 241 q 604 224 561 224 q 540 224 516 228 q 492 232 468 241 q 456 245 431 254 q 327 290 275 290 q 235 290 190 271 q 145 253 87 212 l 87 303 q 139 338 186 356 q 232 373 276 373 q 306 373 337 367 q 368 361 419 344 q 426 342 440 336 q 520 308 562 308 q 604 308 648 326 q 693 344 747 383 z"},"D":{"x_min":0,"x_max":688,"ha":688,"o":"m 246 66 l 297 66 q 396 66 450 140 q 504 214 504 350 q 504 476 449 545 q 395 615 297 615 l 246 615 z m 50 0 l 50 57 l 107 57 l 107 624 l 50 624 l 50 681 l 286 681 q 461 681 557 593 q 653 504 653 345 q 653 260 623 190 q 594 121 536 72 q 491 34 434 17 q 376 0 291 0 z"},"^":{"x_min":0,"x_max":1000,"ha":1000,"o":"m 552 714 l 797 438 l 746 438 l 499 632 l 252 438 l 201 438 l 447 714 z"},"0":{"x_min":0,"x_max":511,"ha":511,"o":"m 124 395 q 124 348 141 284 q 158 221 185 168 q 210 119 239 94 q 268 69 300 69 q 340 69 364 104 q 387 138 387 197 q 387 246 370 310 q 353 374 326 424 q 300 473 271 498 q 241 523 210 523 q 171 523 147 488 q 124 454 124 395 z m 255 -14 q 158 -14 96 72 q 34 157 34 296 q 34 435 96 520 q 158 606 255 606 q 352 606 415 520 q 477 434 477 296 q 477 158 415 72 q 353 -14 255 -14 z"},"F":{"x_min":0,"x_max":556,"ha":556,"o":"m 50 681 l 499 681 l 549 559 l 506 537 q 474 579 432 597 q 390 615 323 615 l 246 615 l 246 442 l 447 442 l 447 494 l 499 494 l 499 316 l 447 316 l 447 376 l 246 376 l 246 57 l 313 57 l 313 0 l 50 0 l 50 57 l 107 57 l 107 624 l 50 624 z"},"`":{"x_min":0,"x_max":500,"ha":500,"o":"m 119 724 l 224 724 l 322 549 l 263 549 z"},"k":{"x_min":0,"x_max":572,"ha":572,"o":"m 209 209 l 291 255 l 329 213 q 371 225 394 252 q 417 279 417 317 q 417 360 388 388 q 359 416 314 416 q 287 416 261 406 q 234 395 209 374 z m 252 690 l 252 640 l 209 625 l 209 428 q 255 462 295 478 q 334 493 375 493 q 440 493 483 452 q 527 410 527 348 q 527 284 481 241 q 435 198 355 188 l 488 48 l 538 48 l 538 0 l 363 0 q 358 9 353 18 q 348 26 340 36 l 209 193 l 209 48 l 253 48 l 253 0 l 46 0 l 46 48 l 91 48 l 91 585 l 46 570 l 46 620 z"},"u":{"x_min":0,"x_max":610,"ha":610,"o":"m 204 492 l 212 492 l 212 147 q 212 110 230 91 q 248 72 282 72 q 309 72 339 85 q 369 99 395 123 l 395 410 l 351 398 l 351 445 l 510 492 l 517 492 l 517 48 l 562 48 l 562 0 l 401 0 l 391 64 q 346 25 305 6 q 264 -14 228 -14 q 164 -14 126 25 q 89 64 89 132 l 89 410 l 45 398 l 45 445 z"},"]":{"x_min":0,"x_max":314,"ha":314,"o":"m 20 680 l 224 680 l 224 -137 l 20 -137 l 20 -81 l 112 -81 l 112 625 l 20 625 z"},"U":{"x_min":0,"x_max":726,"ha":726,"o":"m 45 681 l 241 681 l 241 204 q 241 135 270 101 q 298 66 354 66 q 413 66 446 104 q 480 143 480 210 l 480 624 l 423 624 l 423 681 l 619 681 l 619 57 l 676 57 l 676 0 l 485 0 l 481 69 q 441 27 396 7 q 351 -14 298 -14 q 202 -14 152 40 q 102 94 102 198 l 102 624 l 45 624 z"},"o":{"x_min":0,"x_max":592,"ha":592,"o":"m 161 278 q 161 179 207 110 q 252 40 315 40 q 369 40 400 83 q 431 126 431 202 q 431 302 385 371 q 339 441 275 441 q 223 441 192 397 q 161 353 161 278 z m 296 -14 q 183 -14 108 58 q 33 130 33 240 q 33 351 108 423 q 183 495 296 495 q 410 495 484 423 q 559 351 559 240 q 559 129 484 58 q 410 -14 296 -14 z"},"N":{"x_min":0,"x_max":696,"ha":696,"o":"m 50 681 l 221 681 l 523 217 l 523 624 l 466 624 l 466 681 l 646 681 l 646 624 l 589 624 l 589 0 l 504 0 q 490 25 479 44 q 468 62 457 79 l 173 514 l 173 57 l 234 57 l 234 0 l 50 0 l 50 57 l 107 57 l 107 624 l 50 624 z"},"+":{"x_min":0,"x_max":833,"ha":833,"o":"m 458 596 l 458 339 l 709 339 l 709 258 l 458 258 l 458 0 l 375 0 l 375 258 l 124 258 l 124 339 l 375 339 l 375 596 z"},"G":{"x_min":0,"x_max":720,"ha":720,"o":"m 391 398 l 588 398 q 607 398 623 400 q 638 403 650 408 l 669 372 q 659 362 654 351 q 650 339 650 322 l 650 130 q 650 109 651 94 q 652 79 655 66 q 568 25 496 5 q 424 -14 359 -14 q 213 -14 125 77 q 36 168 36 318 q 36 403 66 474 q 95 545 153 598 q 203 645 264 669 q 325 694 389 694 q 441 694 491 677 q 542 660 587 626 l 620 651 l 654 607 l 485 476 l 452 516 q 462 528 467 539 q 472 550 472 559 q 472 590 444 611 q 416 632 375 632 q 289 632 233 561 q 177 489 177 376 q 177 237 247 146 q 316 56 421 56 q 477 56 499 81 q 522 105 522 187 l 522 341 l 391 341 z"},"q":{"x_min":0,"x_max":572,"ha":572,"o":"m 367 328 q 367 384 345 412 q 323 440 278 440 q 222 440 188 393 q 154 345 154 266 q 154 178 191 122 q 229 66 287 66 q 307 66 327 73 q 347 81 367 96 z m 425 454 l 496 488 q 493 466 492 447 q 490 428 490 414 l 490 -134 l 534 -134 l 534 -182 l 304 -182 l 304 -134 l 367 -134 l 367 42 q 328 14 292 0 q 255 -14 222 -14 q 141 -14 87 50 q 33 113 33 211 q 33 329 110 412 q 187 495 289 495 q 327 495 361 485 q 395 475 425 454 z"},"d":{"x_min":0,"x_max":587,"ha":587,"o":"m 374 331 q 374 383 347 412 q 320 441 273 441 q 222 441 188 392 q 155 343 155 265 q 155 179 192 123 q 229 68 285 68 q 309 68 333 80 q 356 92 374 113 z m 539 690 l 539 640 l 496 625 l 496 48 l 541 48 l 541 0 l 384 0 l 374 56 q 339 21 301 4 q 263 -14 225 -14 q 140 -14 87 51 q 33 117 33 222 q 33 339 99 417 q 166 495 259 495 q 291 495 319 486 q 347 477 374 459 l 374 585 l 329 570 l 329 620 z"},"1":{"x_min":0,"x_max":511,"ha":511,"o":"m 296 593 l 320 593 q 319 584 318 575 q 318 566 318 552 l 318 535 l 318 47 l 369 47 l 369 0 l 153 0 l 153 47 l 204 47 l 204 482 l 142 457 l 142 504 q 203 526 247 559 q 292 593 296 593 z"},"5":{"x_min":0,"x_max":511,"ha":511,"o":"m 153 394 q 174 405 198 411 q 221 417 246 417 q 336 417 390 364 q 444 311 444 224 q 444 125 376 56 q 309 -14 213 -14 q 165 -14 122 6 q 79 26 42 66 l 122 155 q 158 116 195 96 q 232 77 270 77 q 312 77 339 104 q 366 130 366 172 q 366 230 318 278 q 271 326 212 326 q 189 326 169 320 q 148 314 131 302 l 74 326 l 151 593 l 375 593 l 382 617 l 428 617 l 400 497 q 386 498 369 498 q 352 499 349 499 l 186 499 z"}}}
